# xmcd
#
# Track frame offsets:
#	150
#	2456
#	6965
#	12959
#	18052
#	23090
#	30513
#	36762
#	44081
#	50773
#	54710
#	60656
#	66623
#	75761
#	83181
#	91696
#	99068
#	108705
#	115887
#	121511
#	126695
#	133728
#	142968
#	146621
#	154203
#	160898
#	167413
#	174153
#	179309
#	186661
#	194480
#	201251
#	208239
#	216909
#	224414
#	227442
#	234968
#
# Disc length: 3232 seconds
# Revision: 0
# Processed by: cddbd v1.5.2PL0 Copyright (c) Steve Scherf et al.
# Submitted via: dBpowerAMP V12.0
#
DISCID=fe0c9e25
DTITLE=Carroll Best and The White Oak String Band -  Carroll Best and The White Oak String Band
DYEAR=2014
DGENRE=Folk, Country
TTITLE0=On top Of Old Smoky
TTITLE1=Home Sweet Home
TTITLE2=John Henry
TTITLE3=Tennessee Wagoner
TTITLE4=Cripple Creek
TTITLE5=Old Joe Clark
TTITLE6=Grey Eagle
TTITLE7=I Wonder How the Old Folks Are at Home
TTITLE8=Golden Slippers
TTITLE9=Dear Old Dixie
TTITLE10=The Mocking Bird
TTITLE11=Fisher's Hornpipe
TTITLE12=Black Mountain Rag
TTITLE13=When You and I Were Young Maggie
TTITLE14=Y'all Come
TTITLE15=Home Sweet Home
TTITLE16=Lost Indian
TTITLE17=Whistling Rufus
TTITLE18=Lonesome Road Blues
TTITLE19=Farewell Blues
TTITLE20=Black Mountain Rag
TTITLE21=Arkansas Travler
TTITLE22=Cumberland Gap
TTITLE23=Turkey in the Straw
TTITLE24=Bile Them Cabbage Down
TTITLE25=More Pretty Girls Than One
TTITLE26=Fire on the Mountain
TTITLE27=Leather Britches
TTITLE28=Banjo Boogie
TTITLE29=Liberty
TTITLE30=Black-eyed Susan
TTITLE31=Old Joe Clark
TTITLE32=Down Yonder
TTITLE33=Soldiers Joy
TTITLE34=Cripple Creek
TTITLE35=Smoky Mountain Melody
TTITLE36=Home Sweet Home
EXTD=
EXTT0=
EXTT1=
EXTT2=
EXTT3=
EXTT4=
EXTT5=
EXTT6=
EXTT7=
EXTT8=
EXTT9=
EXTT10=
EXTT11=
EXTT12=
EXTT13=
EXTT14=
EXTT15=
EXTT16=
EXTT17=
EXTT18=
EXTT19=
EXTT20=
EXTT21=
EXTT22=
EXTT23=
EXTT24=
EXTT25=
EXTT26=
EXTT27=
EXTT28=
EXTT29=
EXTT30=
EXTT31=
EXTT32=
EXTT33=
EXTT34=
EXTT35=
EXTT36=
PLAYORDER=
